<?xml version="1.0" encoding="UTF-8" standalone="no"?>
<svg width="122px" height="36px" viewBox="0 0 122 36" version="1.1" xmlns="http://www.w3.org/2000/svg" xmlns:xlink="http://www.w3.org/1999/xlink">
    <!-- Generator: Sketch 3.6 (26304) - http://www.bohemiancoding.com/sketch -->
    <title>Group 2</title>
    <desc>Created with Sketch.</desc>
    <defs></defs>
    <g id="V5_Home" stroke="none" stroke-width="1" fill="none" fill-rule="evenodd">
        <g transform="translate(-659.000000, -15.000000)" id="Group-2">
            <g transform="translate(659.000000, 15.000000)">
                <path d="M65.55807,26.03187 C64.86372,26.00127 64.19727,26.11962 63.58842,26.35542 C62.95932,25.11207 62.41752,23.98302 62.53272,23.98842 C62.78787,23.99922 63.80217,24.04197 63.80217,24.04197 C63.80217,24.04197 63.97227,22.47327 63.90747,21.60747 C63.84267,20.73897 63.53937,20.72457 63.53937,20.72457 L62.40312,21.08187 C61.06257,21.53457 60.86277,21.42297 60.86277,21.42297 C60.86277,21.42297 60.87942,20.08377 60.62562,20.07207 C60.37092,20.06172 59.13117,19.74852 59.13117,19.74852 C59.02632,19.54467 58.19292,19.10367 57.75777,18.77922 C57.27042,18.22617 55.57392,16.99947 54.34947,16.14357 C54.51237,16.19037 54.68337,16.22007 54.86067,16.22727 C56.07882,16.27992 57.11067,15.33402 57.16422,14.11452 C57.21507,12.89457 56.26962,11.86407 55.05057,11.81097 C53.83017,11.75652 52.79877,12.70377 52.74567,13.92327 C52.72362,14.45112 52.88967,14.94342 53.18217,15.33762 C53.07327,15.26562 53.01432,15.22512 53.01432,15.22512 C52.72092,14.95827 52.38117,15.30972 52.38117,15.30972 C52.38117,15.30972 49.54482,20.93472 49.37697,21.28257 C49.20867,21.63132 49.88907,22.37337 49.88907,22.37337 L46.02042,22.45932 C45.35667,22.48227 44.85582,24.69897 44.85582,24.69897 C42.29262,25.14852 40.78242,28.28772 40.78242,28.28772 L41.42457,28.77282 L41.37777,29.83752 L40.20957,29.78802 C39.78522,30.22542 40.17987,30.49812 40.17987,30.49812 L41.34627,30.54897 L41.34627,30.56922 L41.33817,30.75237 L41.34267,30.75237 C41.33997,33.40872 43.43292,35.61822 46.11312,35.73432 C48.79512,35.84907 51.07167,33.82632 51.29577,31.17537 C51.83442,31.16997 54.29007,31.15242 55.86597,31.17537 C57.64572,31.20147 58.09617,30.15252 58.09617,30.15252 L58.25592,26.44812 C58.25592,26.44812 59.37372,26.49672 59.89437,26.26362 C60.41007,26.03232 61.17867,24.79482 61.17867,24.79482 L62.43912,26.99307 C61.30602,27.83682 60.54777,29.16567 60.48117,30.68712 C60.36462,33.37497 62.45037,35.64657 65.13732,35.76447 C67.82472,35.88057 70.09857,33.79572 70.21422,31.10697 C70.32987,28.41957 68.24412,26.14707 65.55807,26.03187 L65.55807,26.03187 Z M48.09357,27.83007 C48.89997,28.34937 49.46112,29.20572 49.57902,30.19257 L48.08862,30.12822 C47.96667,29.78712 47.74977,29.49237 47.46627,29.27457 L48.09357,27.83007 Z M46.47177,27.31257 C46.62612,27.31977 46.77507,27.34137 46.92402,27.36972 L46.46007,28.89252 C46.43982,28.89027 46.42272,28.88937 46.40337,28.88667 C45.61857,28.85337 44.92467,29.30562 44.61597,29.97657 L43.12737,29.91312 C43.45002,28.37007 44.84502,27.24237 46.47177,27.31257 L46.47177,27.31257 Z M46.18872,33.85827 C44.44002,33.78177 43.07562,32.34942 43.05762,30.62232 L44.44587,30.68217 C44.39997,31.71852 45.20502,32.59377 46.24002,32.63967 C47.27817,32.68422 48.15252,31.88007 48.19707,30.84327 L49.58487,30.90447 C49.41792,32.62437 47.93517,33.93297 46.18872,33.85827 L46.18872,33.85827 Z M59.80077,21.32802 C56.80872,21.09492 54.21222,22.35582 54.21222,22.35582 C54.21222,22.35582 54.12402,22.47597 54.03447,22.34907 C53.51247,21.60612 53.45442,21.05172 53.45442,21.05172 L54.70047,18.15552 C55.66347,19.36782 59.82912,20.66562 59.82912,20.66562 L59.80077,21.32802 Z M65.25432,34.09767 C63.44442,34.02027 62.03997,32.48847 62.11692,30.67767 C62.15697,29.75022 62.58132,28.93077 63.22572,28.36242 L63.97587,29.66697 C63.67437,29.96397 63.47952,30.36987 63.45927,30.82482 C63.41877,31.78017 64.16082,32.58747 65.11662,32.62932 C66.07062,32.67072 66.87837,31.92867 66.92022,30.97557 C66.96162,30.01932 66.21912,29.21022 65.26377,29.16972 C65.19267,29.16612 65.12157,29.16972 65.05182,29.17467 C64.87677,28.84392 64.60272,28.32102 64.29492,27.72882 C64.68102,27.59202 65.10087,27.52227 65.53782,27.54117 C67.34772,27.61812 68.75217,29.15037 68.67387,30.96027 C68.59467,32.77197 67.06377,34.17642 65.25432,34.09767 L65.25432,34.09767 Z" id="Fill-1" fill="#8DC63F"></path>
                <path d="M16.113645,17.14086 C16.031745,17.19216 15.919245,17.21736 15.776595,17.21736 L15.684795,17.21736 C14.949495,17.17686 14.030595,17.12601 12.927645,17.06436 C11.824695,17.00226 10.619595,16.97211 9.312795,16.97211 C8.700795,16.97211 8.143695,17.05401 7.643295,17.21736 C7.142445,17.38116 6.718995,17.66151 6.372045,18.05976 C6.025095,18.45846 5.759595,18.99441 5.575545,19.66806 C5.391495,20.34216 5.299695,21.17916 5.299695,22.18041 L5.299695,26.00946 C5.299695,27.07101 5.406795,27.93906 5.621445,28.61361 C5.836545,29.28726 6.111495,29.81871 6.448545,30.20661 C6.785595,30.59406 7.157745,30.85911 7.566795,31.00311 C7.974945,31.14576 8.363745,31.21776 8.730945,31.21776 C9.567945,31.21776 10.354545,31.18716 11.089395,31.12596 L11.089395,24.07941 C11.089395,23.91651 11.145645,23.77251 11.258145,23.65101 C11.370195,23.52771 11.507895,23.46741 11.671695,23.46741 L15.592995,23.46741 C15.755895,23.46741 15.898995,23.52771 16.021845,23.65101 C16.144245,23.77251 16.205445,23.91651 16.205445,24.07941 L16.205445,34.37271 C16.205445,34.76016 16.001145,34.99596 15.592995,35.07606 C14.755095,35.24076 13.785345,35.38836 12.682845,35.52111 C11.579895,35.65386 10.262295,35.72001 8.730945,35.72001 C8.158995,35.72001 7.540695,35.65836 6.877395,35.53641 C6.214095,35.41356 5.560245,35.20926 4.917195,34.92351 C4.273695,34.63776 3.655395,34.24941 3.064095,33.75981 C2.471445,33.26931 1.945845,32.66721 1.486395,31.95216 C1.026945,31.23756 0.663795,30.38481 0.398745,29.39391 C0.132795,28.40391 4.5e-05,27.26541 4.5e-05,25.97931 L4.5e-05,22.18086 C4.5e-05,20.22021 0.275445,18.61146 0.827145,17.35551 C1.378845,16.09956 2.097945,15.10416 2.986695,14.36841 C3.875445,13.63311 4.875795,13.12236 5.989095,12.83661 C7.101945,12.55086 8.209845,12.40731 9.312795,12.40731 C10.844595,12.40731 12.151845,12.49506 13.234095,12.66831 C14.316345,12.84156 15.143445,12.98961 15.715845,13.11246 C16.062795,13.17366 16.236045,13.32666 16.236045,13.57146 L16.236045,16.81911 C16.235595,16.98201 16.194645,17.09001 16.113645,17.14086" id="Fill-3" fill="#FFFFFF"></path>
                <path d="M37.95534,25.88688 C37.95534,27.66348 37.72089,29.17593 37.25199,30.42063 C36.78264,31.66668 36.14094,32.68323 35.32554,33.46938 C34.51014,34.25508 33.55164,34.82703 32.45049,35.18433 C31.34979,35.54118 30.16719,35.72028 28.90314,35.72028 C27.63864,35.72028 26.45604,35.54118 25.35534,35.18433 C24.25419,34.82658 23.29614,34.25508 22.48029,33.46938 C21.66489,32.68323 21.02274,31.66623 20.55384,30.42063 C20.08449,29.17548 19.85049,27.66348 19.85049,25.88688 L19.85049,22.24143 C19.85049,20.46438 20.08494,18.95283 20.55384,17.70723 C21.02274,16.46253 21.66489,15.44598 22.48029,14.65938 C23.29569,13.87368 24.25374,13.30128 25.35534,12.94398 C26.45604,12.58668 27.63864,12.40758 28.90314,12.40758 C30.16719,12.40758 31.34979,12.58668 32.45049,12.94398 C33.55119,13.30128 34.50969,13.87368 35.32554,14.65938 C36.14094,15.44598 36.78264,16.46253 37.25199,17.70723 C37.72089,18.95328 37.95534,20.46438 37.95534,22.24143 L37.95534,25.88688 Z M32.71689,22.23288 C32.71689,20.36673 32.40549,19.02303 31.78269,18.20223 C31.15899,17.38278 30.20499,16.97238 28.91844,16.97238 C27.63144,16.97238 26.68194,17.38278 26.06949,18.20223 C25.45659,19.02303 25.15014,20.36673 25.15014,22.23288 L25.15014,25.89543 C25.15014,27.76113 25.45659,29.10483 26.06949,29.92563 C26.68194,30.74508 27.63144,31.15548 28.91844,31.15548 C30.20499,31.15548 31.15899,30.74508 31.78269,29.92563 C32.40549,29.10483 32.71689,27.76113 32.71689,25.89543 L32.71689,22.23288 Z" id="Fill-5" fill="#FFFFFF"></path>
                <path d="M98.81676,35.57331 C98.28576,35.65521 97.57656,35.74206 96.68826,35.83386 C95.80041,35.92566 94.52871,35.97156 92.87451,35.97156 C91.89351,35.97156 90.95211,35.88966 90.05076,35.72721 C89.14806,35.56386 88.35246,35.24661 87.66441,34.77726 C86.97546,34.30746 86.42691,33.63921 86.01561,32.77026 C85.60521,31.90311 85.39956,30.77451 85.39956,29.38581 L85.39956,19.21446 C85.39956,17.82621 85.60521,16.70211 86.01561,15.84486 C86.42691,14.98716 86.97546,14.32386 87.66441,13.85316 C88.35201,13.38381 89.15256,13.06791 90.06561,12.90411 C90.97731,12.74076 91.92456,12.65886 92.90511,12.65886 C93.72186,12.65886 94.44141,12.67416 95.06466,12.70476 C95.68791,12.73581 96.23376,12.77136 96.70401,12.81231 C97.17426,12.85326 97.57701,12.89421 97.91361,12.93426 C98.25066,12.97611 98.55126,13.01661 98.81766,13.05711 C99.22581,13.11876 99.43011,13.32306 99.43011,13.67001 L99.43011,16.51896 C99.43011,16.68276 99.36891,16.82541 99.24606,16.94736 C99.12456,17.07021 98.98056,17.13186 98.81766,17.13186 L92.59956,17.13186 C91.88406,17.13186 91.37871,17.27946 91.08261,17.57556 C90.78651,17.87166 90.63846,18.41841 90.63846,19.21446 L90.63846,22.00266 L98.57241,22.00266 C98.73576,22.00266 98.87931,22.06341 99.00171,22.18626 C99.12456,22.30776 99.18531,22.45176 99.18531,22.61466 L99.18531,25.52526 C99.18531,25.68861 99.12456,25.83126 99.00171,25.95366 C98.87931,26.07606 98.73576,26.13771 98.57241,26.13771 L90.63846,26.13771 L90.63846,29.38491 C90.63846,30.18186 90.78651,30.72771 91.08261,31.02381 C91.37871,31.31991 91.88406,31.46841 92.59956,31.46841 L98.81766,31.46841 C98.98056,31.46841 99.12456,31.52916 99.24606,31.65201 C99.36891,31.77396 99.43011,31.91751 99.43011,32.08041 L99.43011,34.92891 C99.42966,35.29746 99.22536,35.51211 98.81676,35.57331" id="Fill-7" fill="#FFFFFF"></path>
                <path d="M121.0878,13.27149 C121.0878,13.39389 121.0365,13.53744 120.9348,13.70034 L113.64345,24.05484 L120.9654,35.05239 C121.0464,35.15499 121.08735,35.26659 121.08735,35.38899 C121.08735,35.59374 120.94425,35.69544 120.6585,35.69544 L115.38945,35.69544 C115.20585,35.69544 115.06725,35.65449 114.97545,35.57349 C114.88365,35.49159 114.79725,35.38944 114.71535,35.26659 L108.49725,25.15689 L108.49725,35.08344 C108.49725,35.24634 108.4356,35.38944 108.3132,35.51229 C108.1908,35.63424 108.0477,35.69544 107.88435,35.69544 L103.87125,35.69544 C103.70745,35.69544 103.5648,35.63424 103.4424,35.51229 C103.31955,35.38944 103.25835,35.24634 103.25835,35.08344 L103.25835,13.51674 C103.25835,13.35384 103.31955,13.21524 103.4424,13.10274 C103.5648,12.99069 103.70745,12.93444 103.87125,12.93444 L107.88435,12.93444 C108.0477,12.93444 108.1908,12.99069 108.3132,13.10274 C108.4356,13.21524 108.49725,13.35384 108.49725,13.51674 L108.49725,23.25834 L115.23645,13.30209 C115.37865,13.05684 115.60365,12.93444 115.91055,12.93444 L120.5973,12.93444 C120.924,12.93444 121.0878,13.04694 121.0878,13.27149" id="Fill-9" fill="#FFFFFF"></path>
                <path id="Fill-11" fill="#8DC63F" d="M55.201005,33.426585 L60.267555,33.432435 L60.137055,33.295635 L55.201005,33.292485 L55.201005,33.426585 Z"></path>
                <path id="Fill-13" fill="#8DC63F" d="M53.299305,34.79193 L61.074855,34.80318 L60.915555,34.66008 L53.299305,34.65693 L53.299305,34.79193 Z"></path>
                <path id="Fill-15" fill="#8DC63F" d="M56.486205,32.097645 L59.920605,32.043645 L59.881005,31.900545 L56.486205,31.899195 L56.486205,32.097645 Z"></path>
                <path d="M44.533305,5.117445 C45.347355,4.617045 54.976455,-2.148255 64.882305,5.574645 C64.882305,5.574645 65.960055,5.317245 65.891655,4.608495 C65.823705,3.898845 55.721655,-4.316355 43.362855,4.000095 C42.992955,4.250295 43.718355,5.615145 44.533305,5.117445" id="Fill-17" fill="#8DC63F"></path>
                <path d="M46.854045,8.2116 C47.474595,7.8084 54.818145,2.37825 62.370945,8.5779 C62.370945,8.5779 63.242595,8.3736 63.189945,7.80345 C63.136845,7.2342 55.434645,0.64125 46.009395,7.3161 C45.727695,7.5159 46.233945,8.61255 46.854045,8.2116" id="Fill-19" fill="#8DC63F"></path>
                <path d="M49.52835,10.985445 C49.93785,10.697895 54.7758,6.787845 59.7519,11.251845 C59.7519,11.251845 60.2946,11.037195 60.2604,10.626795 C60.2262,10.217295 55.14975,5.469345 48.93975,10.276695 C48.7539,10.419345 49.11975,11.274345 49.52835,10.985445" id="Fill-21" fill="#8DC63F"></path>
                <path d="M81.214875,33.755265 C80.984925,34.301565 80.676675,34.735815 80.283825,35.053965 C79.892325,35.371215 79.429725,35.596215 78.898275,35.728065 C78.367275,35.859015 77.792175,35.924265 77.172975,35.924265 C76.893075,35.924265 76.524975,35.977365 76.305375,35.961165 C76.084875,35.944965 73.514025,36.024615 73.186875,35.991765 C72.940725,35.958465 72.820575,35.819865 72.820575,35.574615 L72.748125,31.541265 C72.748125,31.459365 72.771525,31.383315 72.821925,31.308615 C72.869625,31.234365 72.935775,31.198815 73.018125,31.198815 L75.280275,31.213665 C75.558375,31.213665 75.733425,31.144365 75.807225,31.005315 C75.881475,30.865815 75.917925,30.641265 75.917925,30.330315 L75.871125,13.485465 C75.871125,13.355415 75.919275,13.243815 76.016925,13.154265 C76.117275,13.064715 76.229775,13.020165 76.360725,13.020165 L80.945325,13.051215 C81.074475,13.051215 81.190575,13.095765 81.287775,13.185315 C81.386325,13.275765 81.434925,13.386015 81.434925,13.516065 L81.434925,31.405815 C81.434475,32.238765 81.441675,33.208065 81.214875,33.755265" id="Fill-23" fill="#FFFFFF"></path>
            </g>
        </g>
    </g>
</svg>