<?xml version="1.0" encoding="utf-8"?>
<!-- Generator: Adobe Illustrator 19.2.1, SVG Export Plug-In . SVG Version: 6.00 Build 0)  -->
<svg version="1.1" id="Layer_1" xmlns="http://www.w3.org/2000/svg" xmlns:xlink="http://www.w3.org/1999/xlink" x="0px" y="0px"
	 viewBox="0 0 120 60" style="enable-background:new 0 0 120 60;" xml:space="preserve">
<g>
	<g>
		<path style="fill:#8BC53F;" d="M64.6,24.8c-0.7,0-1.3,0.1-1.9,0.3c-0.6-1.2-1.1-2.3-1-2.3c0.2,0,1.2,0.1,1.2,0.1s0.2-1.5,0.1-2.3
			c-0.1-0.8-0.4-0.9-0.4-0.9L61.6,20c-1.3,0.4-1.5,0.3-1.5,0.3s0-1.3-0.2-1.3c-0.2,0-1.4-0.3-1.4-0.3c-0.1-0.2-0.9-0.6-1.3-0.9
			c-0.5-0.5-2.1-1.7-3.3-2.5c0.2,0,0.3,0.1,0.5,0.1c1.2,0.1,2.2-0.9,2.2-2c0-1.2-0.9-2.2-2-2.2c-1.2-0.1-2.2,0.9-2.2,2
			c0,0.5,0.1,1,0.4,1.4c-0.1-0.1-0.2-0.1-0.2-0.1c-0.3-0.3-0.6,0.1-0.6,0.1s-2.7,5.4-2.9,5.8c-0.2,0.3,0.5,1.1,0.5,1.1l-3.7,0.1
			c-0.6,0-1.1,2.2-1.1,2.2c-2.5,0.4-3.9,3.5-3.9,3.5l0.6,0.5l0,1l-1.1,0c-0.4,0.4,0,0.7,0,0.7l1.1,0c0,0,0,0,0,0l0,0.2h0
			c0,2.6,2,4.7,4.6,4.8c2.6,0.1,4.8-1.8,5-4.4c0.5,0,2.9,0,4.4,0c1.7,0,2.1-1,2.1-1l0.2-3.6c0,0,1.1,0,1.6-0.2
			c0.5-0.2,1.2-1.4,1.2-1.4l1.2,2.1c-1.1,0.8-1.8,2.1-1.9,3.6c-0.1,2.6,1.9,4.8,4.5,4.9c2.6,0.1,4.8-1.9,4.9-4.5
			C69.2,27.1,67.2,24.9,64.6,24.8z M47.8,26.5c0.8,0.5,1.3,1.3,1.4,2.3l-1.4-0.1c-0.1-0.3-0.3-0.6-0.6-0.8L47.8,26.5z M46.2,26
			c0.1,0,0.3,0,0.4,0.1l-0.4,1.5c0,0,0,0-0.1,0c-0.8,0-1.4,0.4-1.7,1.1L43,28.5C43.3,27,44.7,26,46.2,26z M46,32.3
			c-1.7-0.1-3-1.5-3-3.1l1.3,0.1c0,1,0.7,1.8,1.7,1.9c1,0,1.8-0.7,1.9-1.7l1.3,0.1C49.1,31.1,47.6,32.4,46,32.3z M59.1,20.3
			c-2.9-0.2-5.4,1-5.4,1s-0.1,0.1-0.2,0C53,20.5,53,20,53,20l1.2-2.8c0.9,1.2,4.9,2.4,4.9,2.4L59.1,20.3z M64.3,32.6
			c-1.7-0.1-3.1-1.6-3-3.3c0-0.9,0.4-1.7,1.1-2.2l0.7,1.3c-0.3,0.3-0.5,0.7-0.5,1.1c0,0.9,0.7,1.7,1.6,1.7c0.9,0,1.7-0.7,1.7-1.6
			c0-0.9-0.7-1.7-1.6-1.7c-0.1,0-0.1,0-0.2,0c-0.2-0.3-0.4-0.8-0.7-1.4c0.4-0.1,0.8-0.2,1.2-0.2c1.7,0.1,3.1,1.6,3,3.3
			C67.5,31.3,66.1,32.6,64.3,32.6z"/>
		<g>
			<path d="M17,16.2c-0.1,0-0.2,0.1-0.3,0.1h-0.1c-0.7,0-1.6-0.1-2.7-0.1c-1.1-0.1-2.2-0.1-3.5-0.1c-0.6,0-1.1,0.1-1.6,0.2
				c-0.5,0.2-0.9,0.4-1.2,0.8C7.2,17.5,7,18,6.8,18.7c-0.2,0.6-0.3,1.5-0.3,2.4v3.7c0,1,0.1,1.9,0.3,2.5c0.2,0.6,0.5,1.2,0.8,1.5
				c0.3,0.4,0.7,0.6,1.1,0.8c0.4,0.1,0.8,0.2,1.1,0.2c0.8,0,1.6,0,2.3-0.1v-6.8c0-0.2,0.1-0.3,0.2-0.4c0.1-0.1,0.2-0.2,0.4-0.2h3.8
				c0.2,0,0.3,0.1,0.4,0.2c0.1,0.1,0.2,0.3,0.2,0.4v9.9c0,0.4-0.2,0.6-0.6,0.7c-0.8,0.2-1.7,0.3-2.8,0.4c-1.1,0.1-2.3,0.2-3.8,0.2
				c-0.6,0-1.1-0.1-1.8-0.2c-0.6-0.1-1.3-0.3-1.9-0.6c-0.6-0.3-1.2-0.6-1.8-1.1c-0.6-0.5-1.1-1.1-1.5-1.7c-0.4-0.7-0.8-1.5-1-2.5
				c-0.3-1-0.4-2.1-0.4-3.3v-3.7c0-1.9,0.3-3.4,0.8-4.6c0.5-1.2,1.2-2.2,2.1-2.9c0.9-0.7,1.8-1.2,2.9-1.5c1.1-0.3,2.1-0.4,3.2-0.4
				c1.5,0,2.7,0.1,3.8,0.3c1,0.2,1.8,0.3,2.4,0.4c0.3,0.1,0.5,0.2,0.5,0.4v3.1C17.1,16.1,17,16.2,17,16.2z"/>
			<path d="M38,24.7c0,1.7-0.2,3.2-0.7,4.4c-0.5,1.2-1.1,2.2-1.9,2.9c-0.8,0.8-1.7,1.3-2.8,1.7c-1.1,0.3-2.2,0.5-3.4,0.5
				c-1.2,0-2.4-0.2-3.4-0.5c-1.1-0.3-2-0.9-2.8-1.7c-0.8-0.8-1.4-1.7-1.9-2.9c-0.5-1.2-0.7-2.7-0.7-4.4v-3.5c0-1.7,0.2-3.2,0.7-4.4
				c0.5-1.2,1.1-2.2,1.9-2.9c0.8-0.8,1.7-1.3,2.8-1.7c1.1-0.3,2.2-0.5,3.4-0.5c1.2,0,2.4,0.2,3.4,0.5c1.1,0.3,2,0.9,2.8,1.7
				c0.8,0.8,1.4,1.7,1.9,2.9c0.5,1.2,0.7,2.7,0.7,4.4V24.7z M33,21.1c0-1.8-0.3-3.1-0.9-3.9c-0.6-0.8-1.5-1.2-2.8-1.2
				c-1.2,0-2.2,0.4-2.7,1.2c-0.6,0.8-0.9,2.1-0.9,3.9v3.5c0,1.8,0.3,3.1,0.9,3.9c0.6,0.8,1.5,1.2,2.7,1.2c1.2,0,2.2-0.4,2.8-1.2
				c0.6-0.8,0.9-2.1,0.9-3.9V21.1z"/>
		</g>
		<g>
			<path d="M96.7,34c-0.5,0.1-1.2,0.2-2.1,0.3c-0.9,0.1-2.1,0.1-3.7,0.1c-0.9,0-1.9-0.1-2.7-0.2c-0.9-0.2-1.6-0.5-2.3-0.9
				c-0.7-0.5-1.2-1.1-1.6-1.9c-0.4-0.8-0.6-1.9-0.6-3.3v-9.8c0-1.3,0.2-2.4,0.6-3.2c0.4-0.8,0.9-1.5,1.6-1.9
				c0.7-0.5,1.4-0.8,2.3-0.9c0.9-0.2,1.8-0.2,2.7-0.2c0.8,0,1.5,0,2.1,0c0.6,0,1.1,0.1,1.6,0.1c0.5,0,0.8,0.1,1.2,0.1
				c0.3,0,0.6,0.1,0.9,0.1c0.4,0.1,0.6,0.3,0.6,0.6v2.7c0,0.2-0.1,0.3-0.2,0.4c-0.1,0.1-0.3,0.2-0.4,0.2h-6c-0.7,0-1.2,0.1-1.5,0.4
				c-0.3,0.3-0.4,0.8-0.4,1.6v2.7h7.6c0.2,0,0.3,0.1,0.4,0.2c0.1,0.1,0.2,0.3,0.2,0.4v2.8c0,0.2-0.1,0.3-0.2,0.4
				c-0.1,0.1-0.3,0.2-0.4,0.2h-7.6V28c0,0.8,0.1,1.3,0.4,1.6S90,30,90.7,30h6c0.2,0,0.3,0.1,0.4,0.2c0.1,0.1,0.2,0.3,0.2,0.4v2.7
				C97.3,33.7,97.1,33.9,96.7,34z"/>
			<path d="M118.1,12.5c0,0.1,0,0.3-0.1,0.4l-7,10l7.1,10.6c0.1,0.1,0.1,0.2,0.1,0.3c0,0.2-0.1,0.3-0.4,0.3h-5.1
				c-0.2,0-0.3,0-0.4-0.1c-0.1-0.1-0.2-0.2-0.3-0.3l-6-9.7v9.6c0,0.2-0.1,0.3-0.2,0.4c-0.1,0.1-0.3,0.2-0.4,0.2h-3.9
				c-0.2,0-0.3-0.1-0.4-0.2c-0.1-0.1-0.2-0.3-0.2-0.4V12.7c0-0.2,0.1-0.3,0.2-0.4c0.1-0.1,0.3-0.2,0.4-0.2h3.9
				c0.2,0,0.3,0.1,0.4,0.2c0.1,0.1,0.2,0.2,0.2,0.4v9.4l6.5-9.6c0.1-0.2,0.4-0.4,0.6-0.4h4.5C118,12.2,118.1,12.3,118.1,12.5z"/>
		</g>
		<polygon style="fill:#8BC53F;" points="59.4,31.8 54.6,31.8 54.6,31.9 59.5,31.9 		"/>
		<polygon style="fill:#8BC53F;" points="60.1,33.1 52.8,33.1 52.8,33.2 60.3,33.2 		"/>
		<polygon style="fill:#8BC53F;" points="59.2,30.5 55.9,30.4 55.9,30.6 59.2,30.6 		"/>
		<path style="fill:#8BC53F;" d="M44.4,4.6c0.8-0.5,10.1-7,19.6,0.4c0,0,1-0.2,1-0.9c-0.1-0.7-9.8-8.6-21.7-0.6
			C42.9,3.8,43.6,5.1,44.4,4.6z"/>
		<path style="fill:#8BC53F;" d="M46.6,7.6c0.6-0.4,7.7-5.6,15,0.4c0,0,0.8-0.2,0.8-0.7c-0.1-0.5-7.5-6.9-16.6-0.5
			C45.5,7,46,8,46.6,7.6z"/>
		<path style="fill:#8BC53F;" d="M49.2,10.3c0.4-0.3,5.1-4,9.9,0.3c0,0,0.5-0.2,0.5-0.6c0-0.4-4.9-5-10.9-0.3
			C48.4,9.7,48.8,10.6,49.2,10.3z"/>
		<g>
			<g>
				<path d="M79.7,32.2c-0.2,0.5-0.5,0.9-0.9,1.3c-0.4,0.3-0.8,0.5-1.3,0.6c-0.5,0.1-1.1,0.2-1.7,0.2c-0.3,0-0.6,0.1-0.8,0
					c-0.2,0-2.7,0.1-3,0c-0.2,0-0.4-0.2-0.4-0.4l-0.1-3.9c0-0.1,0-0.2,0.1-0.2c0-0.1,0.1-0.1,0.2-0.1l2.2,0c0.3,0,0.4-0.1,0.5-0.2
					c0.1-0.1,0.1-0.4,0.1-0.7l0-16.2c0-0.1,0-0.2,0.1-0.3c0.1-0.1,0.2-0.1,0.3-0.1l4.4,0c0.1,0,0.2,0,0.3,0.1
					c0.1,0.1,0.1,0.2,0.1,0.3V30C79.9,30.8,79.9,31.7,79.7,32.2z"/>
			</g>
		</g>
	</g>
	<g>
		<path style="fill:#8BC53F;" d="M9.4,59.8c-0.3,0-0.7,0.1-1.3,0.2C7.6,60,6.8,60,5.8,60c-0.6,0-1.2,0-1.7-0.1
			c-0.5-0.1-1-0.3-1.4-0.6c-0.4-0.3-0.7-0.7-1-1.2c-0.2-0.5-0.4-1.2-0.4-2V50c0-0.8,0.1-1.5,0.4-2c0.2-0.5,0.6-0.9,1-1.2
			c0.4-0.3,0.9-0.5,1.4-0.6C4.7,46.1,5.3,46,5.8,46c0.5,0,0.9,0,1.3,0c0.4,0,0.7,0,1,0.1s0.5,0,0.7,0.1c0.2,0,0.4,0,0.5,0.1
			c0.2,0,0.4,0.2,0.4,0.4v1.7c0,0.1,0,0.2-0.1,0.3c-0.1,0.1-0.2,0.1-0.3,0.1H5.7c-0.4,0-0.7,0.1-0.9,0.3c-0.2,0.2-0.3,0.5-0.3,1v1.7
			h4.8c0.1,0,0.2,0,0.3,0.1c0.1,0.1,0.1,0.2,0.1,0.3v1.7c0,0.1,0,0.2-0.1,0.3c-0.1,0.1-0.2,0.1-0.3,0.1H4.5v1.9c0,0.5,0.1,0.8,0.3,1
			c0.2,0.2,0.5,0.3,0.9,0.3h3.7c0.1,0,0.2,0,0.3,0.1c0.1,0.1,0.1,0.2,0.1,0.3v1.7C9.8,59.6,9.6,59.7,9.4,59.8z"/>
		<path style="fill:#8BC53F;" d="M22.7,59.6c-0.1,0.1-0.3,0.2-0.5,0.2h-1.8c-0.2,0-0.4,0-0.5-0.1c-0.1-0.1-0.3-0.2-0.4-0.5L15.2,52
			c-0.1-0.1-0.1-0.1-0.2-0.1c-0.1,0-0.1,0-0.1,0.1v7.4c0,0.1,0,0.2-0.1,0.3c-0.1,0.1-0.2,0.1-0.3,0.1h-2.2c-0.1,0-0.2,0-0.3-0.1
			c-0.1-0.1-0.1-0.2-0.1-0.3V46.9c0-0.2,0.1-0.4,0.2-0.5c0.1-0.1,0.3-0.2,0.5-0.2h1.9c0.2,0,0.3,0,0.4,0.1c0.1,0.1,0.2,0.2,0.3,0.4
			l4.4,7.6c0.1,0.1,0.1,0.1,0.1,0.1c0.1,0,0.1-0.1,0.1-0.2v-7.8c0-0.1,0-0.2,0.1-0.2c0.1-0.1,0.2-0.1,0.3-0.1h2.2
			c0.1,0,0.2,0,0.3,0.1c0.1,0.1,0.1,0.2,0.1,0.2v12.6C22.9,59.3,22.8,59.5,22.7,59.6z"/>
		<path style="fill:#8BC53F;" d="M34.7,48.9c0,0-0.1,0-0.2,0h-0.1c-0.4,0-1-0.1-1.7-0.1c-0.7,0-1.4-0.1-2.2-0.1c-0.4,0-0.7,0-1,0.1
			c-0.3,0.1-0.6,0.3-0.8,0.5c-0.2,0.2-0.4,0.6-0.5,1c-0.1,0.4-0.2,0.9-0.2,1.5v2.3c0,0.6,0.1,1.2,0.2,1.6c0.1,0.4,0.3,0.7,0.5,1
			c0.2,0.2,0.4,0.4,0.7,0.5c0.2,0.1,0.5,0.1,0.7,0.1c0.5,0,1,0,1.4-0.1V53c0-0.1,0-0.2,0.1-0.3c0.1-0.1,0.2-0.1,0.2-0.1h2.4
			c0.1,0,0.2,0,0.3,0.1c0.1,0.1,0.1,0.2,0.1,0.3v6.2c0,0.2-0.1,0.4-0.4,0.4c-0.5,0.1-1.1,0.2-1.7,0.3C32,60,31.2,60,30.3,60
			c-0.3,0-0.7,0-1.1-0.1c-0.4-0.1-0.8-0.2-1.2-0.4c-0.4-0.2-0.8-0.4-1.1-0.7c-0.4-0.3-0.7-0.7-0.9-1.1c-0.3-0.4-0.5-0.9-0.7-1.5
			c-0.2-0.6-0.2-1.3-0.2-2v-2.3c0-1.2,0.2-2.1,0.5-2.9c0.3-0.8,0.8-1.4,1.3-1.8c0.5-0.4,1.1-0.7,1.8-0.9c0.7-0.2,1.3-0.3,2-0.3
			c0.9,0,1.7,0.1,2.4,0.2c0.6,0.1,1.1,0.2,1.5,0.3c0.2,0,0.3,0.1,0.3,0.3v1.9C34.8,48.8,34.8,48.8,34.7,48.9z"/>
		<path style="fill:#8BC53F;" d="M40.3,59.7c-0.1,0.1-0.1,0.1-0.2,0.1h-2.5c-0.1,0-0.2,0-0.2-0.1c-0.1-0.1-0.1-0.2-0.1-0.3V46.5
			c0-0.2,0.1-0.3,0.3-0.3h2.5c0.2,0,0.3,0.1,0.3,0.3v12.9C40.4,59.6,40.4,59.7,40.3,59.7z"/>
		<path style="fill:#8BC53F;" d="M53.6,59.6c-0.1,0.1-0.3,0.2-0.5,0.2h-1.8c-0.2,0-0.4,0-0.5-0.1c-0.1-0.1-0.3-0.2-0.4-0.5L46.2,52
			c-0.1-0.1-0.1-0.1-0.2-0.1c-0.1,0-0.1,0-0.1,0.1v7.4c0,0.1,0,0.2-0.1,0.3c-0.1,0.1-0.2,0.1-0.3,0.1h-2.2c-0.1,0-0.2,0-0.3-0.1
			C43,59.7,43,59.6,43,59.5V46.9c0-0.2,0.1-0.4,0.2-0.5c0.1-0.1,0.3-0.2,0.5-0.2h1.9c0.2,0,0.3,0,0.4,0.1c0.1,0.1,0.2,0.2,0.3,0.4
			l4.4,7.6c0.1,0.1,0.1,0.1,0.1,0.1c0.1,0,0.1-0.1,0.1-0.2v-7.8c0-0.1,0-0.2,0.1-0.2c0.1-0.1,0.2-0.1,0.3-0.1h2.2
			c0.1,0,0.2,0,0.3,0.1c0.1,0.1,0.1,0.2,0.1,0.2v12.6C53.8,59.3,53.7,59.5,53.6,59.6z"/>
		<path style="fill:#8BC53F;" d="M64.4,59.8c-0.3,0-0.7,0.1-1.3,0.2C62.6,60,61.8,60,60.8,60c-0.6,0-1.2,0-1.7-0.1
			c-0.5-0.1-1-0.3-1.4-0.6c-0.4-0.3-0.7-0.7-1-1.2c-0.2-0.5-0.4-1.2-0.4-2V50c0-0.8,0.1-1.5,0.4-2c0.2-0.5,0.6-0.9,1-1.2
			c0.4-0.3,0.9-0.5,1.4-0.6c0.5-0.1,1.1-0.1,1.7-0.1c0.5,0,0.9,0,1.3,0c0.4,0,0.7,0,1,0.1c0.3,0,0.5,0,0.7,0.1c0.2,0,0.4,0,0.5,0.1
			c0.2,0,0.4,0.2,0.4,0.4v1.7c0,0.1,0,0.2-0.1,0.3c-0.1,0.1-0.2,0.1-0.3,0.1h-3.7c-0.4,0-0.7,0.1-0.9,0.3c-0.2,0.2-0.3,0.5-0.3,1
			v1.7h4.8c0.1,0,0.2,0,0.3,0.1c0.1,0.1,0.1,0.2,0.1,0.3v1.7c0,0.1,0,0.2-0.1,0.3c-0.1,0.1-0.2,0.1-0.3,0.1h-4.8v1.9
			c0,0.5,0.1,0.8,0.3,1c0.2,0.2,0.5,0.3,0.9,0.3h3.7c0.1,0,0.2,0,0.3,0.1c0.1,0.1,0.1,0.2,0.1,0.3v1.7
			C64.7,59.6,64.6,59.7,64.4,59.8z"/>
		<path style="fill:#8BC53F;" d="M75,59.8c-0.3,0-0.7,0.1-1.3,0.2C73.2,60,72.5,60,71.5,60c-0.6,0-1.2,0-1.7-0.1
			c-0.5-0.1-1-0.3-1.4-0.6c-0.4-0.3-0.7-0.7-1-1.2c-0.2-0.5-0.4-1.2-0.4-2V50c0-0.8,0.1-1.5,0.4-2c0.2-0.5,0.6-0.9,1-1.2
			c0.4-0.3,0.9-0.5,1.4-0.6c0.5-0.1,1.1-0.1,1.7-0.1c0.5,0,0.9,0,1.3,0c0.4,0,0.7,0,1,0.1s0.5,0,0.7,0.1c0.2,0,0.4,0,0.5,0.1
			c0.2,0,0.4,0.2,0.4,0.4v1.7c0,0.1,0,0.2-0.1,0.3c-0.1,0.1-0.2,0.1-0.3,0.1h-3.7c-0.4,0-0.7,0.1-0.9,0.3c-0.2,0.2-0.3,0.5-0.3,1
			v1.7h4.8c0.1,0,0.2,0,0.3,0.1c0.1,0.1,0.1,0.2,0.1,0.3v1.7c0,0.1,0,0.2-0.1,0.3c-0.1,0.1-0.2,0.1-0.3,0.1h-4.8v1.9
			c0,0.5,0.1,0.8,0.3,1c0.2,0.2,0.5,0.3,0.9,0.3H75c0.1,0,0.2,0,0.3,0.1c0.1,0.1,0.1,0.2,0.1,0.3v1.7C75.4,59.6,75.3,59.7,75,59.8z"
			/>
		<path style="fill:#8BC53F;" d="M88.3,59.6c0,0.1-0.1,0.2-0.3,0.2h-2.8c-0.1,0-0.2,0-0.2-0.1c0-0.1-0.1-0.2-0.1-0.3l-2.5-4.6
			l-0.2,0c-0.2,0-0.4,0-0.7,0c-0.2,0-0.5,0-0.6,0v4.7c0,0.1,0,0.2-0.1,0.3c-0.1,0.1-0.2,0.1-0.3,0.1h-2.4c-0.1,0-0.2,0-0.3-0.1
			c-0.1-0.1-0.1-0.2-0.1-0.3V47.1c0-0.3,0.1-0.5,0.2-0.6c0.1-0.1,0.3-0.2,0.6-0.2c0.2,0,0.5-0.1,0.8-0.1c0.3,0,0.6,0,0.9-0.1
			s0.7,0,1-0.1c0.3,0,0.7,0,1,0c0.8,0,1.5,0.1,2.2,0.2c0.7,0.1,1.3,0.4,1.8,0.7c0.5,0.3,0.9,0.8,1.2,1.3c0.3,0.6,0.4,1.2,0.4,2v0.2
			c0,1-0.2,1.8-0.7,2.4c-0.5,0.6-1,1-1.7,1.3l2.8,5.2C88.2,59.5,88.3,59.6,88.3,59.6z M84.7,50.3c0-0.6-0.2-1-0.6-1.2
			c-0.4-0.3-1-0.4-1.8-0.4c-0.1,0-0.2,0-0.3,0c-0.1,0-0.3,0-0.4,0c-0.1,0-0.3,0-0.4,0c-0.1,0-0.2,0-0.3,0v3.5c0,0,0.1,0,0.3,0
			c0.1,0,0.3,0,0.4,0c0.1,0,0.3,0,0.4,0c0.1,0,0.2,0,0.3,0c0.5,0,0.9,0,1.2-0.1c0.3-0.1,0.6-0.2,0.8-0.3c0.2-0.1,0.3-0.3,0.4-0.5
			s0.1-0.5,0.1-0.8V50.3z"/>
		<path style="fill:#8BC53F;" d="M93.2,59.7c-0.1,0.1-0.1,0.1-0.2,0.1h-2.5c-0.1,0-0.2,0-0.2-0.1s-0.1-0.2-0.1-0.3V46.5
			c0-0.2,0.1-0.3,0.3-0.3H93c0.2,0,0.3,0.1,0.3,0.3v12.9C93.3,59.6,93.3,59.7,93.2,59.7z"/>
		<path style="fill:#8BC53F;" d="M106.5,59.6c-0.1,0.1-0.3,0.2-0.5,0.2h-1.8c-0.2,0-0.4,0-0.5-0.1c-0.1-0.1-0.3-0.2-0.4-0.5L99.1,52
			c-0.1-0.1-0.1-0.1-0.2-0.1c-0.1,0-0.1,0-0.1,0.1v7.4c0,0.1,0,0.2-0.1,0.3c-0.1,0.1-0.2,0.1-0.3,0.1h-2.2c-0.1,0-0.2,0-0.3-0.1
			c-0.1-0.1-0.1-0.2-0.1-0.3V46.9c0-0.2,0.1-0.4,0.2-0.5c0.1-0.1,0.3-0.2,0.5-0.2h1.9c0.2,0,0.3,0,0.4,0.1c0.1,0.1,0.2,0.2,0.3,0.4
			l4.4,7.6c0.1,0.1,0.1,0.1,0.1,0.1c0.1,0,0.1-0.1,0.1-0.2v-7.8c0-0.1,0-0.2,0.1-0.2c0.1-0.1,0.2-0.1,0.3-0.1h2.2
			c0.1,0,0.2,0,0.3,0.1c0.1,0.1,0.1,0.2,0.1,0.2v12.6C106.7,59.3,106.6,59.5,106.5,59.6z"/>
		<path style="fill:#8BC53F;" d="M118.6,48.9c0,0-0.1,0-0.2,0h-0.1c-0.4,0-1-0.1-1.7-0.1c-0.7,0-1.4-0.1-2.2-0.1c-0.4,0-0.7,0-1,0.1
			c-0.3,0.1-0.6,0.3-0.8,0.5c-0.2,0.2-0.4,0.6-0.5,1c-0.1,0.4-0.2,0.9-0.2,1.5v2.3c0,0.6,0.1,1.2,0.2,1.6c0.1,0.4,0.3,0.7,0.5,1
			c0.2,0.2,0.4,0.4,0.7,0.5c0.2,0.1,0.5,0.1,0.7,0.1c0.5,0,1,0,1.4-0.1V53c0-0.1,0-0.2,0.1-0.3c0.1-0.1,0.2-0.1,0.2-0.1h2.4
			c0.1,0,0.2,0,0.3,0.1c0.1,0.1,0.1,0.2,0.1,0.3v6.2c0,0.2-0.1,0.4-0.4,0.4c-0.5,0.1-1.1,0.2-1.7,0.3c-0.7,0.1-1.5,0.1-2.4,0.1
			c-0.3,0-0.7,0-1.1-0.1c-0.4-0.1-0.8-0.2-1.2-0.4c-0.4-0.2-0.8-0.4-1.1-0.7c-0.4-0.3-0.7-0.7-0.9-1.1c-0.3-0.4-0.5-0.9-0.7-1.5
			c-0.2-0.6-0.2-1.3-0.2-2v-2.3c0-1.2,0.2-2.1,0.5-2.9c0.3-0.8,0.8-1.4,1.3-1.8c0.5-0.4,1.1-0.7,1.8-0.9c0.7-0.2,1.3-0.3,2-0.3
			c0.9,0,1.7,0.1,2.4,0.2c0.6,0.1,1.1,0.2,1.5,0.3c0.2,0,0.3,0.1,0.3,0.3v1.9C118.7,48.8,118.6,48.8,118.6,48.9z"/>
	</g>
</g>
</svg>
